<?xml version="1.0" standalone="no"?>
<!DOCTYPE svg PUBLIC "-//W3C//DTD SVG 20010904//EN"
 "http://www.w3.org/TR/2001/REC-SVG-20010904/DTD/svg10.dtd">
<svg version="1.0" xmlns="http://www.w3.org/2000/svg"
 width="500.000000pt" height="500.000000pt" viewBox="0 0 500.000000 500.000000"
 preserveAspectRatio="xMidYMid meet">
<metadata>
Created by potrace 1.14, written by Peter Selinger 2001-2017
</metadata>
<g transform="translate(0.000000,500.000000) scale(0.100000,-0.100000)"
fill="#000000" stroke="none">
<path d="M123 4993 c124 -4 127 -4 127 -26 -1 -12 -13 -179 -29 -372 l-28
-350 68 -414 c37 -227 70 -415 72 -417 2 -2 48 -1 103 3 l99 8 6 170 c4 94 10
271 14 393 8 260 -9 239 145 175 119 -50 345 -130 386 -137 17 -3 50 -13 74
-21 24 -8 47 -12 51 -8 15 18 52 185 43 199 -5 8 -92 72 -193 142 -102 70
-186 132 -188 138 -2 5 68 122 155 259 l158 250 400 5 c225 3 -35 5 -596 5
-547 1 -938 -1 -867 -2z m769 -10 c-50 -2 -134 -2 -185 0 -50 1 -9 3 93 3 102
0 143 -2 92 -3z"/>
<path d="M3463 4993 l488 -3 -6 -33 c-3 -17 -28 -191 -54 -384 -44 -322 -50
-354 -70 -371 -22 -17 -22 -20 -11 -77 11 -54 9 -85 -18 -289 -18 -127 -30
-232 -27 -234 2 -2 71 -7 154 -10 l150 -5 3 -81 3 -81 50 0 c48 0 50 1 53 30
1 17 5 54 8 84 l6 54 57 -6 58 -5 6 151 c4 82 7 198 7 257 l0 107 98 46 c251
118 537 249 558 258 24 9 24 9 24 191 l0 183 -91 105 -91 105 94 6 c51 3 -364
5 -922 5 -558 -1 -795 -2 -527 -3z m1010 -273 c58 -41 106 -78 107 -81 0 -5
-207 -39 -237 -39 -9 0 -13 18 -13 59 0 90 11 152 25 143 6 -4 59 -41 118 -82z"/>
<path d="M3632 4114 c-24 -10 -32 -20 -28 -32 2 -9 14 -66 26 -127 34 -172 65
-181 83 -25 9 80 8 98 -8 146 -20 58 -23 60 -73 38z"/>
<path d="M1455 4067 c-19 -52 -22 -116 -15 -250 7 -125 12 -153 26 -164 36
-26 47 1 74 192 29 207 30 198 -31 217 -37 12 -51 13 -54 5z"/>
<path d="M3047 3633 c-9 -9 -9 -51 1 -56 4 -3 26 -8 50 -12 38 -6 42 -5 42 13
0 11 9 22 20 25 11 3 20 12 20 21 0 13 -12 16 -63 16 -35 0 -67 -3 -70 -7z"/>
<path d="M2107 3419 c-7 -28 4 -43 44 -59 23 -10 33 -10 42 -1 6 6 19 11 29
11 10 0 18 4 18 9 0 5 2 16 6 24 4 11 -7 15 -48 20 -29 3 -60 8 -69 12 -12 4
-18 -1 -22 -16z"/>
<path d="M4112 3290 c-43 -10 -42 -10 -35 -54 l6 -39 106 6 c117 7 184 22 178
40 -4 13 -157 56 -197 55 -14 0 -40 -4 -58 -8z"/>
<path d="M262 3217 c-123 -69 -148 -88 -139 -110 13 -34 96 -26 267 23 58 18
111 35 118 39 16 10 3 80 -18 91 -9 5 -39 11 -66 14 -46 5 -56 2 -162 -57z"/>
<path d="M1615 2365 c-79 -28 -145 -127 -145 -220 0 -136 126 -253 247 -230
49 9 102 37 132 69 l25 26 -29 30 -28 29 -34 -26 c-22 -17 -51 -28 -82 -31
-43 -4 -52 -1 -84 28 -66 58 -68 153 -5 212 35 33 99 38 150 12 30 -15 32 -15
57 10 32 33 23 51 -39 84 -50 25 -106 28 -165 7z"/>
<path d="M2980 2271 c0 -30 -4 -40 -20 -44 -15 -4 -20 -14 -20 -36 0 -24 4
-31 20 -31 18 0 20 -7 20 -80 0 -128 27 -170 109 -170 59 0 71 8 71 46 0 32
-2 34 -33 34 -48 0 -57 15 -57 97 l0 73 46 0 45 0 -3 38 c-3 36 -4 37 -45 40
-42 3 -43 4 -43 38 0 34 0 34 -45 34 l-45 0 0 -39z"/>
<path d="M2075 2243 c-11 -3 -30 -14 -43 -26 l-23 -21 -6 22 c-4 18 -13 22
-44 22 l-39 0 0 -160 0 -160 45 0 45 0 0 98 c0 91 2 100 24 121 16 15 38 24
68 25 42 2 43 3 46 39 2 27 -1 37 -12 37 -8 0 -20 2 -28 4 -7 2 -22 1 -33 -1z"/>
<path d="M2295 2239 c-65 -20 -115 -89 -115 -157 0 -113 107 -189 228 -162 57
12 70 27 53 57 -8 17 -18 19 -70 15 -45 -3 -67 0 -86 12 -45 29 -29 36 85 36
l110 0 0 43 c-1 106 -107 187 -205 156z m92 -93 c15 -13 25 -27 22 -31 -4 -3
-38 -5 -75 -3 l-69 3 27 28 c33 33 58 34 95 3z"/>
<path d="M2667 2236 c-49 -18 -64 -32 -88 -77 -38 -75 -17 -166 49 -217 43
-33 121 -37 165 -8 24 16 27 17 27 2 0 -12 10 -16 40 -16 l40 0 0 160 0 160
-40 0 c-29 0 -40 -4 -40 -15 0 -19 -5 -19 -33 -1 -35 22 -79 26 -120 12z m121
-90 c8 -8 16 -34 19 -58 6 -54 -17 -86 -67 -94 -41 -7 -84 21 -94 61 -9 33 18
93 46 105 28 12 78 4 96 -14z"/>
<path d="M3307 2236 c-50 -18 -76 -42 -98 -91 -23 -51 -23 -79 0 -132 35 -75
132 -117 216 -94 64 18 71 25 53 53 -15 22 -21 24 -76 20 -45 -3 -66 0 -86 13
-14 10 -26 21 -26 26 0 5 51 10 113 11 l112 3 3 27 c5 40 -31 111 -69 141 -43
32 -94 41 -142 23z m101 -93 l27 -28 -69 -3 c-37 -2 -71 0 -75 3 -9 10 48 55
70 55 11 0 32 -12 47 -27z"/>
<path d="M1640 1475 l0 -225 45 0 45 0 0 91 0 90 27 -3 c22 -2 43 -23 93 -90
l65 -87 58 0 58 -1 -70 91 c-39 50 -71 95 -71 100 0 5 9 13 20 19 30 16 50 63
50 116 0 41 -5 51 -39 85 l-39 39 -121 0 -121 0 0 -225z m210 125 c24 -24 24
-29 4 -58 -14 -20 -23 -23 -67 -20 -51 3 -52 4 -55 36 -5 53 2 62 53 62 32 0
51 -6 65 -20z"/>
<path d="M3210 1605 c0 -28 -5 -38 -25 -47 -34 -15 -36 -65 -2 -70 21 -3 22
-8 25 -88 1 -47 4 -95 7 -107 7 -28 53 -53 99 -53 54 0 66 8 66 46 0 32 -2 34
-35 34 -44 0 -55 20 -55 104 l0 66 45 0 45 0 0 40 0 40 -45 0 c-45 0 -45 0
-45 35 0 34 -1 35 -40 35 -39 0 -40 -1 -40 -35z"/>
<path d="M2185 1569 c-65 -20 -115 -89 -115 -157 0 -113 107 -189 228 -162 57
12 70 27 53 57 -8 17 -18 19 -70 15 -45 -3 -67 0 -86 12 -45 29 -29 36 85 36
l110 0 0 43 c-1 106 -107 187 -205 156z m92 -93 c15 -13 25 -27 22 -31 -4 -3
-38 -5 -75 -3 l-69 3 27 28 c33 33 58 34 95 3z"/>
<path d="M2557 1566 c-49 -18 -64 -32 -88 -77 -38 -75 -17 -166 49 -217 43
-33 121 -37 165 -8 24 16 27 17 27 2 0 -12 10 -16 40 -16 l40 0 0 160 0 160
-40 0 c-29 0 -40 -4 -40 -15 0 -19 -5 -19 -33 -1 -35 22 -79 26 -120 12z m121
-90 c8 -8 16 -34 19 -58 6 -54 -17 -86 -67 -94 -41 -7 -84 21 -94 61 -9 33 18
93 46 105 28 12 78 4 96 -14z"/>
<path d="M2959 1571 c-44 -14 -74 -39 -97 -80 -74 -132 54 -290 192 -237 66
25 75 41 44 73 -25 24 -27 25 -49 9 -53 -37 -121 1 -121 67 0 75 52 113 113
83 30 -15 33 -14 61 5 24 17 27 24 17 36 -30 36 -113 59 -160 44z"/>
<path d="M2062 1013 c-9 -18 -156 -367 -173 -410 -8 -22 -6 -23 44 -23 l53 0
19 50 19 50 97 0 96 0 21 -50 21 -50 52 0 c39 0 50 3 46 14 -3 7 -45 109 -93
225 l-88 211 -53 0 c-40 0 -54 -4 -61 -17z m91 -180 l26 -63 -55 0 c-30 0 -54
4 -54 10 0 14 50 124 54 119 2 -2 15 -32 29 -66z"/>
<path d="M2535 895 c-25 -9 -43 -11 -49 -5 -6 6 -25 10 -43 10 l-33 0 0 -226
0 -225 43 3 42 3 3 71 3 71 43 -15 c36 -13 50 -14 84 -4 83 25 135 118 112
203 -14 53 -63 106 -108 119 -46 12 -48 12 -97 -5z m96 -94 c20 -20 29 -39 29
-61 0 -40 -47 -90 -85 -90 -69 0 -105 115 -49 159 37 29 70 26 105 -8z"/>
<path d="M2930 903 c-14 -3 -31 -10 -37 -15 -9 -7 -17 -7 -27 1 -8 7 -30 11
-48 9 l-33 -3 0 -220 0 -220 43 -3 42 -3 0 76 c0 70 2 76 18 70 55 -22 76 -26
107 -21 40 8 90 46 110 87 19 36 19 122 0 159 -31 60 -108 96 -175 83z m81
-102 c20 -20 29 -39 29 -61 0 -39 -47 -90 -84 -90 -14 0 -37 11 -53 24 -22 19
-28 32 -28 66 0 34 6 47 28 66 38 32 72 30 108 -5z"/>
</g>
</svg>
